<svg version="1.1" id="Layer_1" xmlns="http://www.w3.org/2000/svg" xmlns:xlink="http://www.w3.org/1999/xlink" x="0px" y="0px"
	 width="100%" viewBox="0 0 62 58" enable-background="new 0 0 62 58" xml:space="preserve">
<path fill="#FFFEFD" opacity="1.000000" stroke="none" 
	d="
M43.000957,59.000000 
	C28.667442,59.000000 14.834130,59.000000 1.000613,59.000000 
	C1.000409,39.666969 1.000409,20.333937 1.000204,1.000678 
	C21.666334,1.000452 42.332668,1.000452 62.999252,1.000226 
	C62.999504,20.332972 62.999504,39.665943 62.999752,58.999458 
	C56.500385,59.000000 50.000774,59.000000 43.000957,59.000000 
M21.189753,47.583103 
	C25.479029,47.035168 29.770658,46.504948 34.057133,45.935905 
	C45.953804,44.356586 53.020157,33.328022 48.859928,22.654453 
	C47.983002,20.404600 46.508366,18.387718 45.326374,16.294016 
	C47.248390,14.087646 49.102516,11.959208 51.701225,8.976034 
	C44.766823,9.823050 39.168678,10.484894 33.577675,11.202358 
	C31.762154,11.435335 29.903160,11.616202 28.170982,12.160935 
	C21.666952,14.206321 16.445564,18.251791 16.040085,25.217617 
	C15.724936,30.631622 17.654299,36.176281 18.586065,41.662868 
	C18.997580,41.606361 19.409094,41.549854 19.820608,41.493347 
	C18.024117,43.496784 16.227625,45.500225 13.786573,48.222473 
	C16.724512,48.009682 18.536539,47.878441 21.189753,47.583103 
z"/>
<path fill="#FCA51D" opacity="1.000000" stroke="none" 
	d="
M20.769161,47.665154 
	C18.536539,47.878441 16.724512,48.009682 13.786573,48.222473 
	C16.227625,45.500225 18.024117,43.496784 19.820608,41.493347 
	C19.409094,41.549854 18.997580,41.606361 18.586065,41.662868 
	C17.654299,36.176281 15.724936,30.631622 16.040085,25.217617 
	C16.445564,18.251791 21.666952,14.206321 28.170982,12.160935 
	C29.903160,11.616202 31.762154,11.435335 33.577675,11.202358 
	C39.168678,10.484894 44.766823,9.823050 51.701225,8.976034 
	C49.102516,11.959208 47.248390,14.087646 45.326374,16.294016 
	C46.508366,18.387718 47.983002,20.404600 48.859928,22.654453 
	C53.020157,33.328022 45.953804,44.356586 34.057133,45.935905 
	C29.770658,46.504948 25.479029,47.035168 20.769161,47.665154 
M27.082819,17.168932 
	C18.028080,22.917826 17.168139,33.930824 25.355801,39.286297 
	C30.275427,42.504177 37.337143,41.995327 41.538960,38.120174 
	C45.937454,34.063641 46.962513,27.894491 44.110073,22.646433 
	C40.995945,16.916906 35.089111,14.829899 27.082819,17.168932 
z"/>
<path fill="#FFFCFB" opacity="1.000000" stroke="none" 
	d="
M27.457335,17.031963 
	C35.089111,14.829899 40.995945,16.916906 44.110073,22.646433 
	C46.962513,27.894491 45.937454,34.063641 41.538960,38.120174 
	C37.337143,41.995327 30.275427,42.504177 25.355801,39.286297 
	C17.168139,33.930824 18.028080,22.917826 27.457335,17.031963 
z"/>
</svg>